<svg width="24" height="24" viewBox="0 0 24 24" fill="none" xmlns="http://www.w3.org/2000/svg">
<path d="M11.8612 21.1872C11.7825 21.1872 11.7038 21.1591 11.6325 21.1122L10.9125 20.5778C10.8038 20.5028 10.8563 20.4747 10.8938 20.4606C11.0363 20.3997 11.0663 20.3856 11.22 20.2731C11.235 20.2637 11.2575 20.2684 11.2725 20.2778L11.8275 20.6903C11.8463 20.7044 11.8763 20.7044 11.895 20.6903L14.0625 19.1247C14.0813 19.1106 14.0963 19.0825 14.0963 19.0497V15.9231C14.0963 15.8903 14.085 15.8622 14.0625 15.8481L11.895 14.2872C11.8763 14.2731 11.85 14.2731 11.8275 14.2872L9.66 15.8481C9.6375 15.8622 9.62625 15.895 9.62625 15.9231V19.0497C9.62625 19.0778 9.64125 19.1059 9.66 19.12L10.2525 19.5466C10.575 19.7481 10.7738 19.5091 10.7738 19.2747V16.1856C10.7738 16.1434 10.8 16.1059 10.8375 16.1059H11.1112C11.145 16.1059 11.175 16.1387 11.175 16.1856V19.2747C11.175 19.8137 10.9425 20.1184 10.5338 20.1184C10.41 20.1184 10.3088 20.1184 10.035 19.9497L9.465 19.5419C9.32625 19.4387 9.23625 19.2512 9.23625 19.0497V15.9231C9.23625 15.7216 9.3225 15.5294 9.465 15.4309L11.6325 13.8653C11.7713 13.7669 11.9513 13.7669 12.0863 13.8653L14.2538 15.4309C14.3925 15.5341 14.4825 15.7216 14.4825 15.9231V19.0497C14.4825 19.2512 14.3963 19.4434 14.2538 19.5419L12.0863 21.1075C12.0225 21.1591 11.9438 21.1872 11.8612 21.1872ZM13.6125 18.1028C13.6125 17.5169 13.2975 17.3622 12.63 17.2497C11.955 17.1372 11.8875 17.0809 11.8875 16.8841C11.8875 16.72 11.9438 16.5044 12.4425 16.5044C12.8888 16.5044 13.0538 16.6262 13.1213 17.0012C13.1287 17.0387 13.1513 17.0622 13.1813 17.0622H13.4625C13.4813 17.0622 13.4963 17.0528 13.5075 17.0387C13.5188 17.02 13.5263 17.0012 13.5225 16.9778C13.4775 16.3309 13.1363 16.0309 12.4425 16.0309C11.8237 16.0309 11.4563 16.3591 11.4563 16.9028C11.4563 17.4981 11.8238 17.6575 12.4163 17.7325C13.125 17.8216 13.1813 17.9481 13.1813 18.1216C13.1813 18.4262 12.9863 18.5528 12.5288 18.5528C11.955 18.5528 11.8275 18.3747 11.7863 18.0184C11.7825 17.9809 11.7563 17.9528 11.7225 17.9528H11.4413C11.4075 17.9528 11.3775 17.9856 11.3775 18.0325C11.3775 18.4872 11.5763 19.0309 12.525 19.0309C13.2188 19.0309 13.6125 18.6934 13.6125 18.1028ZM15.6563 15.7544C15.6563 16.0403 15.4688 16.2747 15.24 16.2747C15.0113 16.2747 14.8238 16.0403 14.8238 15.7544C14.8238 15.4591 15.0188 15.2341 15.24 15.2341C15.465 15.2294 15.6563 15.4591 15.6563 15.7544ZM15.5888 15.7544C15.5888 15.5106 15.4313 15.3184 15.2362 15.3184C15.045 15.3184 14.8875 15.5106 14.8875 15.7544C14.8875 15.9981 15.045 16.195 15.2362 16.195C15.4313 16.1903 15.5888 15.9934 15.5888 15.7544ZM15.42 16.045H15.3225C15.3188 16.0169 15.3038 15.8669 15.3038 15.8622C15.2963 15.8294 15.2887 15.8106 15.255 15.8106H15.1725V16.045H15.0825V15.4591H15.2438C15.3 15.4591 15.4088 15.4591 15.4088 15.6137C15.4088 15.7216 15.3525 15.745 15.3188 15.7591C15.3825 15.7637 15.3863 15.8153 15.3975 15.8903C15.4013 15.9372 15.4088 16.0169 15.42 16.045ZM15.315 15.6325C15.315 15.5528 15.27 15.5528 15.2475 15.5528H15.1725V15.7169H15.2438C15.3038 15.7169 15.315 15.6653 15.315 15.6325ZM5.14875 8.95281C5.14875 8.82625 5.09625 8.71375 5.01 8.65281L2.71125 6.99812C2.67375 6.97 2.62875 6.95594 2.58375 6.95125H2.56125C2.51625 6.95125 2.475 6.97 2.43375 6.99812L0.13875 8.65281C0.0525 8.71375 0 8.83094 0 8.95281L0.00375 13.4059C0.00375 13.4669 0.03 13.5231 0.07125 13.5559C0.1125 13.5887 0.165 13.5887 0.21 13.5559L1.575 12.5762C1.66125 12.5106 1.71375 12.3981 1.71375 12.2762V10.195C1.71375 10.0731 1.76625 9.95594 1.8525 9.895L2.43375 9.47781C2.47875 9.445 2.52375 9.43093 2.5725 9.43093C2.62125 9.43093 2.67 9.445 2.71125 9.47781L3.2925 9.895C3.37875 9.95594 3.43125 10.0731 3.43125 10.195V12.2762C3.43125 12.3981 3.48375 12.5153 3.57 12.5762L4.935 13.5559C4.97625 13.5887 5.0325 13.5887 5.07375 13.5559C5.115 13.5278 5.14125 13.4669 5.14125 13.4059L5.14875 8.95281ZM17.7188 4.09187V12.3606C17.7188 12.4825 17.6663 12.5997 17.58 12.6606L15.2813 14.32C15.195 14.3809 15.09 14.3809 15.0038 14.32L12.705 12.6606C12.6187 12.5997 12.5663 12.4825 12.5663 12.3606V9.04187C12.5663 8.92 12.6187 8.80281 12.705 8.74187L15.0038 7.0825C15.09 7.02156 15.195 7.02156 15.2813 7.0825L15.855 7.495C15.9187 7.54187 16.0013 7.48093 16.0013 7.39187V2.98562C16.0013 2.85437 16.1138 2.77 16.2075 2.83562L17.5763 3.79187C17.6625 3.84812 17.7188 3.96531 17.7188 4.09187ZM15.9938 10.1341C15.9938 10.1012 15.9788 10.0731 15.96 10.0591L15.1725 9.48718C15.15 9.47312 15.1238 9.47312 15.1013 9.48718L14.3138 10.0591C14.2913 10.0731 14.28 10.1012 14.28 10.1341V11.2731C14.28 11.3059 14.295 11.3341 14.3138 11.3481L15.1013 11.9153C15.1238 11.9294 15.15 11.9294 15.1688 11.9153L15.9563 11.3481C15.9788 11.3341 15.99 11.3059 15.99 11.2731V10.1341H15.9938ZM23.8612 10.1012C23.9475 10.0403 24 9.92312 24 9.80125V8.99968C24 8.87781 23.9475 8.76062 23.8612 8.69969L21.5775 7.04031C21.4913 6.97937 21.3863 6.97937 21.3 7.04031L19.0013 8.69969C18.915 8.76062 18.8625 8.87781 18.8625 8.99968V12.3184C18.8625 12.445 18.915 12.5575 19.0013 12.6184L21.285 14.245C21.3675 14.3059 21.4725 14.3059 21.5588 14.245L22.9388 13.2841C23.0325 13.2184 23.0325 13.0497 22.9388 12.9841L20.625 11.3247C20.58 11.2919 20.5537 11.2356 20.5537 11.1747V10.1341C20.5537 10.0731 20.58 10.0169 20.625 9.98406L21.345 9.46375C21.3863 9.43093 21.4425 9.43093 21.4838 9.46375L22.2038 9.98406C22.245 10.0169 22.275 10.0731 22.275 10.1341V10.9497C22.275 11.0809 22.3913 11.1653 22.485 11.0997L23.8612 10.1012ZM20.9625 10.2653C20.9475 10.2794 20.9363 10.2981 20.9363 10.3216V10.9591C20.9363 10.9825 20.9475 11.0059 20.9625 11.0153L21.405 11.3341C21.42 11.3481 21.4425 11.3481 21.4575 11.3341L21.9 11.0153C21.915 11.0012 21.9263 10.9825 21.9263 10.9591V10.3216C21.9263 10.2981 21.915 10.2747 21.9 10.2653L21.4575 9.94656C21.4425 9.9325 21.42 9.9325 21.405 9.94656L20.9625 10.2653ZM11.43 12.3044V9.00437C11.43 8.8825 11.37 8.76531 11.2838 8.70437L8.9925 7.05437C8.91375 6.99812 8.805 6.98875 8.715 7.05437L6.42375 8.70437C6.3375 8.76531 6.2775 8.87781 6.2775 9.00437V12.3044C6.2775 12.4356 6.34875 12.5481 6.4275 12.6044L8.7225 14.2544C8.8125 14.32 8.9175 14.3153 9 14.2544L11.2875 12.6044C11.355 12.5575 11.4038 12.4778 11.4225 12.3841C11.4263 12.3606 11.43 12.3325 11.43 12.3044ZM8.64375 6.44969L8.61375 6.47312H8.655L8.64375 6.44969ZM11.5013 12.5528L11.4862 12.52V12.5622L11.5013 12.5528Z" fill="black"/>
</svg>
