<svg width="24" height="24" viewBox="0 0 24 24" fill="none" xmlns="http://www.w3.org/2000/svg">
<g clip-path="url(#clip0_2_5550)">
<path d="M22.2 0H1.8C1.32261 0 0.864773 0.237053 0.527208 0.65901C0.189642 1.08097 0 1.65326 0 2.25L0 17.25C0 17.8467 0.189642 18.419 0.527208 18.841C0.864773 19.2629 1.32261 19.5 1.8 19.5H10.8V21H4.2C4.04087 21 3.88826 21.079 3.77574 21.2197C3.66321 21.3603 3.6 21.5511 3.6 21.75V23.25C3.6 23.4489 3.66321 23.6397 3.77574 23.7803C3.88826 23.921 4.04087 24 4.2 24H19.8C19.9591 24 20.1117 23.921 20.2243 23.7803C20.3368 23.6397 20.4 23.4489 20.4 23.25V21.75C20.4 21.5511 20.3368 21.3603 20.2243 21.2197C20.1117 21.079 19.9591 21 19.8 21H13.2V19.5H22.2C22.6774 19.5 23.1352 19.2629 23.4728 18.841C23.8104 18.419 24 17.8467 24 17.25V2.25C24 1.65326 23.8104 1.08097 23.4728 0.65901C23.1352 0.237053 22.6774 0 22.2 0V0ZM21.6 16.5H2.4V3H21.6V16.5Z" fill="black"/>
</g>
<defs>
<clipPath id="clip0_2_5550">
<rect width="24" height="24" fill="white"/>
</clipPath>
</defs>
</svg>
