<svg width="24" height="24" viewBox="0 0 24 24" fill="none" xmlns="http://www.w3.org/2000/svg">
<g clip-path="url(#clip0_2_5545)">
<path d="M15.6001 4.5C17.5876 4.5 19.2001 3.49219 19.2001 2.25C19.2001 1.00781 17.5876 0 15.6001 0C13.6126 0 12.0001 1.00781 12.0001 2.25C12.0001 3.49219 13.6126 4.5 15.6001 4.5ZM22.6875 11.4891L20.9401 10.9359L20.2126 9.55781C19.1101 7.46719 16.0351 6.00469 12.5476 6C9.84757 5.99531 8.35507 6.47344 5.55007 7.18125C3.93007 7.58906 2.60257 8.3625 1.82258 9.34687L1.32008 9.98438C0.735077 10.725 1.20758 11.625 2.38508 11.9953C3.55507 12.3656 4.98007 12.0656 5.57257 11.325L6.07507 10.6875C6.33757 10.3594 6.77257 10.1016 7.31257 9.96563L9.32257 9.45938L8.18257 12.3047C7.79257 13.2797 8.21257 14.3156 9.30007 15.0609L13.7926 18.1266C14.3326 18.4969 14.7151 18.9422 14.9101 19.425L16.2826 22.8609C16.6051 23.6625 17.9101 24.1547 19.1926 23.9531C20.4751 23.7516 21.2626 22.9359 20.9401 22.1344L19.2751 17.9625C19.0801 17.4797 18.6976 17.0297 18.1576 16.6641L14.7451 14.3344L16.0351 11.1141L16.4476 11.8875C16.8451 12.6422 17.7001 13.2656 18.8251 13.6219L20.5726 14.175C21.7425 14.5453 23.1675 14.2453 23.76 13.5047C24.3375 12.7688 23.865 11.8594 22.6875 11.4891ZM5.52007 18.0844C5.28007 18.4641 4.92007 18.8062 4.45507 19.0922L0.705077 21.4406C-0.232422 22.0266 -0.232422 22.9781 0.705077 23.5641C1.64258 24.15 3.15757 24.15 4.09507 23.5641L8.55007 20.7797C9.00757 20.4937 9.36757 20.1516 9.61507 19.7719L10.6276 18.1875C6.48007 15.3609 7.72507 16.2281 7.07257 15.6703L5.52007 18.0844Z" fill="black"/>
</g>
<defs>
<clipPath id="clip0_2_5545">
<rect width="24" height="24" fill="white"/>
</clipPath>
</defs>
</svg>
