<svg width="24" height="24" viewBox="0 0 24 24" fill="none" xmlns="http://www.w3.org/2000/svg">
<g clip-path="url(#clip0_2_8413)">
<path d="M17.3588 14.6672C17.9713 14.3531 18.8213 14.0812 18.8213 14.0812C18.8213 14.0812 16.4026 14.4094 13.9963 14.5594C11.0526 14.7422 7.89009 14.7797 6.30259 14.6203C2.54634 14.2453 8.36509 13.2094 8.36509 13.2094C8.36509 13.2094 6.10884 13.0969 3.32759 14.1C0.0463364 15.2906 11.4526 15.8344 17.3588 14.6672ZM12.0213 13.1625C10.8338 11.1609 6.82759 9.40312 12.0213 6.32812C18.5001 2.49375 15.1776 0 15.1776 0C16.5213 3.96094 10.4526 5.16094 8.25884 7.62188C6.76509 9.30469 8.99009 11.1094 12.0213 13.1625ZM19.1838 4.90312C19.1901 4.90312 8.23384 6.95625 13.4651 11.475C15.0088 12.8063 13.0588 14.0062 13.0588 14.0062C13.0588 14.0062 16.9776 12.4875 15.1776 10.5891C13.4963 8.81719 12.2088 7.93594 19.1838 4.90312ZM18.8026 17.5828C18.7684 17.6275 18.7264 17.6685 18.6776 17.7047C26.6963 16.125 23.7463 12.1312 19.9151 13.1437C19.7082 13.2008 19.5294 13.3038 19.4026 13.4391C19.6263 13.3783 19.8562 13.3313 20.0901 13.2984C22.0276 12.9938 24.8088 15.2438 18.8026 17.5828ZM21.7501 20.5031C21.7501 20.5031 22.6563 21.0609 20.7563 21.4969C17.1376 22.3172 5.70634 22.5656 2.53134 21.5297C1.38759 21.1594 3.53134 20.6391 4.20634 20.5312C4.90634 20.4188 5.31259 20.4375 5.31259 20.4375C4.04384 19.7672 -2.89366 21.7547 1.78759 22.3219C14.5526 23.8781 25.0626 21.6234 21.7501 20.5031ZM7.77759 18.5625C2.85884 19.5938 10.7713 21.7219 17.0338 19.7109C16.4231 19.533 15.8335 19.3166 15.2713 19.0641C12.4776 19.4625 11.1838 19.4906 8.64634 19.275C6.55259 19.0969 7.77759 18.5625 7.77759 18.5625ZM19.0151 23.1188C14.0963 23.8125 8.02759 23.7328 4.43384 23.2875C4.43384 23.2828 5.17134 23.7422 8.95884 23.925C14.7213 24.2016 23.5713 23.7703 23.7776 21.7266C23.7776 21.7266 23.3776 22.5 19.0151 23.1188ZM16.2901 16.5469C12.5901 17.0812 10.4463 17.0672 7.74009 16.8563C5.64634 16.6922 7.01509 15.9328 7.01509 15.9328C1.59009 17.2828 10.0276 18.8109 17.6088 17.1469C17.1189 17.0171 16.6699 16.8128 16.2901 16.5469Z" fill="black"/>
</g>
<defs>
<clipPath id="clip0_2_8413">
<rect width="24" height="24" fill="white"/>
</clipPath>
</defs>
</svg>
