<svg width="24" height="24" viewBox="0 0 24 24" fill="none" xmlns="http://www.w3.org/2000/svg">
<g clip-path="url(#clip0_2_6110)">
<path d="M18.0026 4.5H6C5.01072 4.49982 4.03676 4.80542 3.16481 5.38957C2.29287 5.97373 1.55001 6.81832 1.00237 7.84816C0.454722 8.878 0.119287 10.0611 0.0259257 11.2922C-0.0674358 12.5233 0.0841729 13.7641 0.467254 14.9042C0.850336 16.0444 1.453 17.0484 2.2216 17.827C2.9902 18.6055 3.90088 19.1344 4.87256 19.3666C5.84425 19.5988 6.84679 19.5271 7.79093 19.1578C8.73507 18.7885 9.59151 18.1331 10.284 17.25H13.716C14.4084 18.133 15.2647 18.7883 16.2088 19.1576C17.1528 19.527 18.1552 19.5988 19.1268 19.3668C20.0984 19.1347 21.009 18.606 21.7776 17.8277C22.5463 17.0494 23.149 16.0456 23.5322 14.9058C23.9155 13.7659 24.0673 12.5252 23.9742 11.2942C23.8812 10.0633 23.546 8.88015 22.9987 7.85021C22.4514 6.82026 21.7089 5.97544 20.8372 5.39093C19.9655 4.80642 18.9918 4.50036 18.0026 4.5ZM9.3 12.5625C9.3 12.7117 9.25259 12.8548 9.1682 12.9602C9.08381 13.0657 8.96935 13.125 8.85 13.125H6.9V15.5625C6.9 15.7117 6.85259 15.8548 6.7682 15.9602C6.68381 16.0657 6.56935 16.125 6.45 16.125H5.55C5.43066 16.125 5.3162 16.0657 5.23181 15.9602C5.14741 15.8548 5.1 15.7117 5.1 15.5625V13.125H3.15C3.03066 13.125 2.9162 13.0657 2.83181 12.9602C2.74741 12.8548 2.7 12.7117 2.7 12.5625V11.4375C2.7 11.2883 2.74741 11.1452 2.83181 11.0398C2.9162 10.9343 3.03066 10.875 3.15 10.875H5.1V8.4375C5.1 8.28832 5.14741 8.14524 5.23181 8.03975C5.3162 7.93426 5.43066 7.875 5.55 7.875H6.45C6.56935 7.875 6.68381 7.93426 6.7682 8.03975C6.85259 8.14524 6.9 8.28832 6.9 8.4375V10.875H8.85C8.96935 10.875 9.08381 10.9343 9.1682 11.0398C9.25259 11.1452 9.3 11.2883 9.3 11.4375V12.5625ZM17.4 16.125C17.1033 16.125 16.8133 16.015 16.5666 15.809C16.32 15.603 16.1277 15.3101 16.0142 14.9675C15.9007 14.6249 15.8709 14.2479 15.9288 13.8842C15.9867 13.5205 16.1296 13.1864 16.3393 12.9242C16.5491 12.662 16.8164 12.4834 17.1074 12.411C17.3983 12.3387 17.6999 12.3758 17.974 12.5177C18.2481 12.6596 18.4824 12.9 18.6472 13.2083C18.812 13.5166 18.9 13.8792 18.9 14.25C18.9 14.7473 18.742 15.2242 18.4607 15.5758C18.1794 15.9275 17.7978 16.125 17.4 16.125ZM19.8 11.625C19.5033 11.625 19.2133 11.515 18.9666 11.309C18.72 11.103 18.5277 10.8101 18.4142 10.4675C18.3007 10.1249 18.2709 9.74792 18.3288 9.38421C18.3867 9.02049 18.5296 8.6864 18.7393 8.42417C18.9491 8.16195 19.2164 7.98337 19.5074 7.91103C19.7983 7.83868 20.0999 7.87581 20.374 8.01773C20.6481 8.15964 20.8824 8.39996 21.0472 8.70831C21.212 9.01665 21.3 9.37916 21.3 9.75C21.3 10.2473 21.142 10.7242 20.8607 11.0758C20.5794 11.4275 20.1978 11.625 19.8 11.625Z" fill="black"/>
</g>
<defs>
<clipPath id="clip0_2_6110">
<rect width="24" height="24" fill="white"/>
</clipPath>
</defs>
</svg>
