<svg width="24" height="24" viewBox="0 0 24 24" fill="none" xmlns="http://www.w3.org/2000/svg">
<path d="M12.0001 23.8127C11.6412 23.8127 11.2769 23.7283 10.9608 23.569L7.65546 21.858C7.1626 21.6143 7.40367 21.5299 7.56438 21.483C8.22331 21.2815 8.35724 21.2393 9.05903 20.8877C9.13403 20.8502 9.23046 20.8643 9.30546 20.9065L11.8447 22.2237C11.9358 22.2705 12.0644 22.2705 12.1501 22.2237L22.0447 17.2268C22.1358 17.1799 22.1947 17.0862 22.1947 16.9924V6.99866C22.1947 6.90022 22.1358 6.81116 22.0394 6.75959L12.1501 1.76741C12.059 1.72053 11.9358 1.72053 11.8447 1.76741L1.96081 6.76428C1.86438 6.81116 1.80545 6.90491 1.80545 7.00334V16.9924C1.80545 17.0862 1.86438 17.1799 1.96081 17.2221L4.67153 18.5908C6.14474 19.233 7.04474 18.4783 7.04474 17.7143V7.85178C7.04474 7.71116 7.17331 7.60334 7.33403 7.60334H8.5876C8.74296 7.60334 8.87688 7.71116 8.87688 7.85178V17.719C8.87688 19.4346 7.80546 20.419 5.94653 20.419C5.37331 20.419 4.92331 20.419 3.66974 19.8752L1.07688 18.5674C0.434026 18.244 0.0375977 17.6393 0.0375977 16.9877V6.99866C0.0375977 6.35178 0.434026 5.74241 1.07688 5.41897L10.9608 0.422095C11.5876 0.11272 12.418 0.11272 13.0394 0.422095L22.934 5.42366C23.5769 5.74709 23.9733 6.35178 23.9733 7.00334V16.9924C23.9733 17.6393 23.5769 18.244 22.934 18.5721L13.0394 23.569C12.7233 23.7283 12.3644 23.8127 12.0001 23.8127ZM19.9876 13.9643C19.9876 12.094 18.5412 11.5971 15.5037 11.2455C12.4287 10.8893 12.118 10.7065 12.118 10.0783C12.118 9.55803 12.3805 8.86428 14.6572 8.86428C16.6876 8.86428 17.4376 9.24866 17.7483 10.4487C17.7751 10.5612 17.893 10.6455 18.0269 10.6455H19.3126C19.393 10.6455 19.468 10.6174 19.5215 10.5658C19.5751 10.5143 19.6019 10.444 19.5965 10.3737C19.3983 8.30647 17.8287 7.34553 14.6572 7.34553C11.834 7.34553 10.1519 8.38616 10.1519 10.1346C10.1519 12.0283 11.8287 12.5533 14.534 12.7877C17.7751 13.0643 18.0269 13.4815 18.0269 14.0393C18.0269 15.0049 17.1376 15.4174 15.0537 15.4174C12.434 15.4174 11.8608 14.8408 11.668 13.7018C11.6465 13.5799 11.5287 13.4908 11.384 13.4908H10.1037C9.94296 13.4908 9.81974 13.6033 9.81974 13.7393C9.81974 15.1971 10.7251 16.9362 15.059 16.9362C18.1876 16.9315 19.9876 15.8487 19.9876 13.9643Z" fill="black"/>
</svg>
