<svg width="24" height="24" viewBox="0 0 24 24" fill="none" xmlns="http://www.w3.org/2000/svg">
<g clip-path="url(#clip0_2_6297)">
<path d="M24 13.5422C23.9776 14.3592 23.2867 15 22.4694 15H19.8756V15.75C19.8756 16.7749 19.6467 17.7461 19.2381 18.6162L22.0613 21.4394C22.647 22.0252 22.647 22.9749 22.0613 23.5607C21.4754 24.1465 20.5257 24.1464 19.9399 23.5607L17.3741 20.9949C16.214 21.9359 14.7358 22.5 13.1256 22.5V11.0625C13.1256 10.7519 12.8737 10.5 12.5631 10.5H11.4381C11.1274 10.5 10.8756 10.7519 10.8756 11.0625V22.5C9.26538 22.5 7.78718 21.9359 6.62702 20.9949L4.06127 23.5607C3.47543 24.1465 2.52569 24.1464 1.93989 23.5607C1.35414 22.9749 1.35414 22.0252 1.93989 21.4394L4.76308 18.6162C4.35443 17.7461 4.12558 16.7749 4.12558 15.75V15H1.5318C0.714488 15 0.0235977 14.3592 0.00119141 13.5422C-0.0221055 12.6945 0.658144 12 1.50058 12H4.12558V9.24633L1.93989 7.06064C1.35414 6.47484 1.35414 5.52511 1.93989 4.93931C2.52574 4.35352 3.47543 4.35352 4.06127 4.93931L6.62191 7.5H17.3792L19.9398 4.93936C20.5257 4.35356 21.4754 4.35356 22.0612 4.93936C22.647 5.52516 22.647 6.47489 22.0612 7.06069L19.8756 9.24633V12H22.5006C23.343 12 24.0233 12.6945 24 13.5422ZM12.0475 0C9.14796 0 6.79746 2.3505 6.79746 5.25H17.2975C17.2975 2.3505 14.947 0 12.0475 0Z" fill="black"/>
</g>
<defs>
<clipPath id="clip0_2_6297">
<rect width="24" height="24" fill="white"/>
</clipPath>
</defs>
</svg>
