<svg width="24" height="24" viewBox="0 0 24 24" fill="none" xmlns="http://www.w3.org/2000/svg">
<g clip-path="url(#clip0_2_6318)">
<path d="M21.6937 2.324C20.2044 0.836276 18.1854 0.000610352 16.0804 0.000610352C13.9753 0.000610352 11.9564 0.836276 10.4671 2.324C8.80397 3.98478 7.506 6.00041 7.506 9.00041V13.0237L5.60194 14.9263C5.14725 15.3806 4.47694 15.4453 3.87788 15.2076C3.27298 14.9661 2.60325 14.9407 1.98183 15.1359C1.36042 15.3311 0.825427 15.7348 0.467239 16.2788C0.10905 16.8228 -0.0503731 17.4737 0.0159037 18.1217C0.0821805 18.7697 0.370094 19.3749 0.831001 19.8351C1.54678 20.5499 2.54241 20.752 3.46163 20.5415C3.25069 21.4603 3.45319 22.4554 4.16944 23.1712C4.62951 23.6333 5.23511 23.9224 5.88378 23.9893C6.53244 24.0563 7.18432 23.8971 7.7291 23.5387C8.27388 23.1803 8.67811 22.6447 8.87338 22.0225C9.06865 21.4003 9.04297 20.7297 8.80069 20.1243C8.56209 19.5276 8.62631 18.8587 9.08194 18.4017L10.9855 16.5004H15.0116C15.9981 16.5078 16.9788 16.3493 17.9127 16.0317C16.0546 13.9743 16.0457 10.8646 17.9619 8.95025C19.5735 7.33963 22.0288 7.10056 23.9966 8.16275C24.0576 6.05525 23.3024 3.93088 21.6937 2.324Z" fill="black"/>
</g>
<defs>
<clipPath id="clip0_2_6318">
<rect width="24" height="24" fill="white"/>
</clipPath>
</defs>
</svg>
