<svg width="24" height="24" viewBox="0 0 24 24" fill="none" xmlns="http://www.w3.org/2000/svg">
<path d="M19.6031 8.30603C19.35 8.22165 19.0969 8.14197 18.8438 8.06697C18.8859 7.89353 18.9234 7.72009 18.9609 7.54665C19.5375 4.7529 19.1578 2.50759 17.8781 1.76697C16.6453 1.05916 14.6344 1.79509 12.6 3.56697C12.3984 3.74041 12.2016 3.92322 12.0141 4.10603C11.8875 3.98415 11.7563 3.86228 11.625 3.74509C9.49219 1.85134 7.35469 1.05447 6.075 1.79978C4.84688 2.51228 4.48125 4.62634 4.99687 7.27009C5.04844 7.53259 5.10469 7.7904 5.17031 8.05291C4.87031 8.13728 4.575 8.23103 4.29844 8.32947C1.79531 9.19665 0 10.5654 0 11.981C0 13.4435 1.9125 14.9107 4.51406 15.8013C4.725 15.8717 4.93594 15.942 5.15156 16.0029C5.08125 16.2842 5.02031 16.5607 4.96406 16.8467C4.47188 19.4482 4.85625 21.5107 6.08438 22.2185C7.35 22.9498 9.47812 22.1998 11.55 20.3857C11.7141 20.2404 11.8781 20.0904 12.0422 19.931C12.2484 20.1326 12.4641 20.3248 12.6797 20.5123C14.6859 22.2373 16.6688 22.9357 17.8922 22.2279C19.1578 21.4967 19.5703 19.2795 19.0359 16.5795C18.9937 16.3732 18.9469 16.1623 18.8953 15.9467C19.0453 15.9045 19.1906 15.8576 19.3359 15.8107C22.0406 14.9154 24 13.467 24 11.981C24 10.5607 22.1531 9.18259 19.6031 8.30603ZM13.2609 4.32634C15.0047 2.80759 16.6313 2.21228 17.3719 2.63884C18.1641 3.09353 18.4688 4.93103 17.9719 7.34509C17.9391 7.50447 17.9062 7.65915 17.8641 7.81384C16.8234 7.57947 15.7687 7.41072 14.7094 7.31697C14.1 6.44509 13.4344 5.61072 12.7125 4.82791C12.8953 4.65447 13.0734 4.49041 13.2609 4.32634ZM7.8375 14.4138C8.07656 14.8217 8.32031 15.2295 8.57812 15.6279C7.84688 15.5482 7.12031 15.431 6.40313 15.2763C6.60938 14.6013 6.86719 13.9029 7.16719 13.1904C7.38281 13.6029 7.60312 14.0107 7.8375 14.4138ZM6.41719 8.77478C7.09219 8.62478 7.80937 8.5029 8.55469 8.40915C8.30625 8.79822 8.0625 9.19665 7.83281 9.59978C7.60313 9.99822 7.37812 10.406 7.16719 10.8185C6.87187 10.1201 6.62344 9.43572 6.41719 8.77478ZM7.70156 12.0045C8.01094 11.3576 8.34844 10.7248 8.70469 10.1013C9.06094 9.4779 9.44531 8.87322 9.84844 8.2779C10.5516 8.22634 11.2688 8.19822 12 8.19822C12.7312 8.19822 13.4531 8.22634 14.1516 8.2779C14.55 8.86853 14.9297 9.47322 15.2906 10.092C15.6516 10.7107 15.9891 11.3435 16.3078 11.9857C15.9937 12.6326 15.6562 13.2701 15.2953 13.8982C14.9391 14.5217 14.5594 15.1263 14.1609 15.7263C13.4625 15.7779 12.7359 15.8013 12 15.8013C11.2641 15.8013 10.5516 15.7779 9.8625 15.7357C9.45469 15.1404 9.07031 14.531 8.70938 13.9076C8.34844 13.2842 8.01562 12.6513 7.70156 12.0045ZM16.1672 14.4045C16.4062 13.992 16.6313 13.5748 16.8516 13.1529C17.1516 13.8326 17.4141 14.5217 17.6437 15.2295C16.9172 15.3935 16.1812 15.5201 15.4406 15.6045C15.6937 15.2107 15.9328 14.8076 16.1672 14.4045ZM16.8422 10.8185C16.6219 10.406 16.3969 9.99353 16.1625 9.5904C15.9328 9.19197 15.6938 8.79822 15.4453 8.40915C16.2 8.5029 16.9219 8.62947 17.5969 8.78415C17.3813 9.4779 17.1281 10.1529 16.8422 10.8185ZM12.0094 5.54509C12.5016 6.07947 12.9656 6.64197 13.3969 7.22322C12.4687 7.18103 11.5359 7.18103 10.6078 7.22322C11.0672 6.61853 11.5406 6.05603 12.0094 5.54509ZM6.57187 2.67166C7.35938 2.21228 9.10781 2.86853 10.95 4.49978C11.0672 4.60291 11.1844 4.7154 11.3062 4.82791C10.5797 5.61072 9.90938 6.44509 9.29531 7.31697C8.23594 7.41072 7.18594 7.57478 6.14531 7.80447C6.08438 7.5654 6.03281 7.32166 5.98125 7.07791C5.54063 4.80915 5.83125 3.09822 6.57187 2.67166ZM5.42344 15.0279C5.22656 14.9717 5.03438 14.9107 4.84219 14.8451C3.84375 14.531 2.70937 14.0342 1.88906 13.3826C1.41562 13.0545 1.09687 12.5482 1.00781 11.981C1.00781 11.1232 2.48906 10.0263 4.62656 9.28103C4.89375 9.18728 5.16563 9.1029 5.4375 9.02322C5.75625 10.0404 6.14062 11.0388 6.58594 12.0045C6.13594 12.9842 5.74687 13.9967 5.42344 15.0279ZM10.8891 19.6217C10.1156 20.3295 9.22031 20.892 8.24531 21.2763C7.725 21.5248 7.125 21.5482 6.59063 21.3373C5.84531 20.906 5.53594 19.2513 5.95781 17.0248C6.00938 16.7623 6.06563 16.4998 6.13125 16.242C7.18125 16.467 8.24062 16.6217 9.31406 16.7013C9.93281 17.5779 10.6125 18.417 11.3391 19.2045C11.1891 19.3498 11.0391 19.4904 10.8891 19.6217ZM12.0375 18.4826C11.5594 17.967 11.0813 17.3951 10.6172 16.781C11.0672 16.7998 11.5312 16.8092 12 16.8092C12.4828 16.8092 12.9562 16.7998 13.425 16.7763C12.9937 17.3717 12.5297 17.9388 12.0375 18.4826ZM18.1641 19.8888C18.1219 20.4607 17.8406 20.9951 17.3906 21.356C16.6453 21.7873 15.0563 21.2248 13.3406 19.7529C13.1438 19.5842 12.9469 19.4013 12.7453 19.2138C13.4625 18.4217 14.1234 17.5826 14.7234 16.7013C15.7969 16.6123 16.8656 16.4482 17.9203 16.2092C17.9672 16.4013 18.0094 16.5935 18.0469 16.781C18.2766 17.7935 18.3141 18.8482 18.1641 19.8888ZM19.0172 14.8498C18.8859 14.892 18.7547 14.9342 18.6188 14.9717C18.2906 13.9498 17.8875 12.9513 17.4234 11.981C17.8734 11.0248 18.2531 10.0404 18.5719 9.03259C18.8156 9.1029 19.05 9.1779 19.275 9.2529C21.4594 10.0029 22.9922 11.1185 22.9922 11.9717C22.9922 12.8904 21.3563 14.0763 19.0172 14.8498ZM12 14.1467C13.1859 14.1467 14.1469 13.1857 14.1469 11.9998C14.1469 10.8138 13.1859 9.8529 12 9.8529C10.8141 9.8529 9.85312 10.8138 9.85312 11.9998C9.85312 13.1857 10.8141 14.1467 12 14.1467Z" fill="black"/>
</svg>
